<svg width="149" height="17" viewBox="0 0 149 17" fill="none" xmlns="http://www.w3.org/2000/svg">
<path d="M13.6924 5.30884H11.7549C11.6404 4.75155 11.4398 4.26196 11.1534 3.84009C10.8721 3.41821 10.5284 3.06405 10.1221 2.77759C9.72109 2.48592 9.27578 2.26717 8.78619 2.12134C8.29661 1.9755 7.78619 1.90259 7.25494 1.90259C6.28619 1.90259 5.40859 2.14738 4.62213 2.63696C3.84088 3.12655 3.21849 3.8479 2.75494 4.80103C2.29661 5.75415 2.06744 6.92342 2.06744 8.30884C2.06744 9.69425 2.29661 10.8635 2.75494 11.8167C3.21849 12.7698 3.84088 13.4911 4.62213 13.9807C5.40859 14.4703 6.28619 14.7151 7.25494 14.7151C7.78619 14.7151 8.29661 14.6422 8.78619 14.4963C9.27578 14.3505 9.72109 14.1344 10.1221 13.8479C10.5284 13.5562 10.8721 13.1995 11.1534 12.7776C11.4398 12.3505 11.6404 11.8609 11.7549 11.3088H13.6924C13.5466 12.1265 13.281 12.8583 12.8956 13.5042C12.5102 14.15 12.031 14.6995 11.4581 15.1526C10.8852 15.6005 10.2419 15.9417 9.52838 16.176C8.82005 16.4104 8.06224 16.5276 7.25494 16.5276C5.89036 16.5276 4.67682 16.1943 3.61432 15.5276C2.55182 14.8609 1.71588 13.913 1.10651 12.6838C0.497131 11.4547 0.192444 9.99634 0.192444 8.30884C0.192444 6.62134 0.497131 5.163 1.10651 3.93384C1.71588 2.70467 2.55182 1.75675 3.61432 1.09009C4.67682 0.423421 5.89036 0.0900873 7.25494 0.0900873C8.06224 0.0900873 8.82005 0.207275 9.52838 0.44165C10.2419 0.676025 10.8852 1.01978 11.4581 1.4729C12.031 1.92082 12.5102 2.46769 12.8956 3.11353C13.281 3.75415 13.5466 4.48592 13.6924 5.30884ZM16.8233 16.3088V0.308837H18.7608V14.5901H26.1983V16.3088H16.8233ZM31.1358 0.308837V16.3088H29.1983V0.308837H31.1358ZM47.8956 5.30884H45.9581C45.8435 4.75155 45.643 4.26196 45.3565 3.84009C45.0753 3.41821 44.7315 3.06405 44.3253 2.77759C43.9242 2.48592 43.4789 2.26717 42.9893 2.12134C42.4997 1.9755 41.9893 1.90259 41.4581 1.90259C40.4893 1.90259 39.6117 2.14738 38.8253 2.63696C38.044 3.12655 37.4216 3.8479 36.9581 4.80103C36.4997 5.75415 36.2706 6.92342 36.2706 8.30884C36.2706 9.69425 36.4997 10.8635 36.9581 11.8167C37.4216 12.7698 38.044 13.4911 38.8253 13.9807C39.6117 14.4703 40.4893 14.7151 41.4581 14.7151C41.9893 14.7151 42.4997 14.6422 42.9893 14.4963C43.4789 14.3505 43.9242 14.1344 44.3253 13.8479C44.7315 13.5562 45.0753 13.1995 45.3565 12.7776C45.643 12.3505 45.8435 11.8609 45.9581 11.3088H47.8956C47.7497 12.1265 47.4841 12.8583 47.0987 13.5042C46.7133 14.15 46.2341 14.6995 45.6612 15.1526C45.0883 15.6005 44.445 15.9417 43.7315 16.176C43.0232 16.4104 42.2654 16.5276 41.4581 16.5276C40.0935 16.5276 38.8799 16.1943 37.8174 15.5276C36.7549 14.8609 35.919 13.913 35.3096 12.6838C34.7003 11.4547 34.3956 9.99634 34.3956 8.30884C34.3956 6.62134 34.7003 5.163 35.3096 3.93384C35.919 2.70467 36.7549 1.75675 37.8174 1.09009C38.8799 0.423421 40.0935 0.0900873 41.4581 0.0900873C42.2654 0.0900873 43.0232 0.207275 43.7315 0.44165C44.445 0.676025 45.0883 1.01978 45.6612 1.4729C46.2341 1.92082 46.7133 2.46769 47.0987 3.11353C47.4841 3.75415 47.7497 4.48592 47.8956 5.30884ZM51.0264 16.3088V0.308837H52.9639V8.24634H53.1514L60.3389 0.308837H62.8702L56.1514 7.52759L62.8702 16.3088H60.5264L54.9639 8.87134L52.9639 11.1213V16.3088H51.0264ZM71.5655 0.308837H73.878L79.3155 13.5901H79.503L84.9405 0.308837H87.253V16.3088H85.4405V4.15259H85.2842L80.2842 16.3088H78.5342L73.5342 4.15259H73.378V16.3088H71.5655V0.308837ZM104.638 8.30884C104.638 9.99634 104.333 11.4547 103.724 12.6838C103.114 13.913 102.278 14.8609 101.216 15.5276C100.153 16.1943 98.9398 16.5276 97.5753 16.5276C96.2107 16.5276 94.9971 16.1943 93.9346 15.5276C92.8721 14.8609 92.0362 13.913 91.4268 12.6838C90.8174 11.4547 90.5128 9.99634 90.5128 8.30884C90.5128 6.62134 90.8174 5.163 91.4268 3.93384C92.0362 2.70467 92.8721 1.75675 93.9346 1.09009C94.9971 0.423421 96.2107 0.0900873 97.5753 0.0900873C98.9398 0.0900873 100.153 0.423421 101.216 1.09009C102.278 1.75675 103.114 2.70467 103.724 3.93384C104.333 5.163 104.638 6.62134 104.638 8.30884ZM102.763 8.30884C102.763 6.92342 102.531 5.75415 102.067 4.80103C101.609 3.8479 100.987 3.12655 100.2 2.63696C99.419 2.14738 98.544 1.90259 97.5753 1.90259C96.6065 1.90259 95.7289 2.14738 94.9424 2.63696C94.1612 3.12655 93.5388 3.8479 93.0753 4.80103C92.6169 5.75415 92.3878 6.92342 92.3878 8.30884C92.3878 9.69425 92.6169 10.8635 93.0753 11.8167C93.5388 12.7698 94.1612 13.4911 94.9424 13.9807C95.7289 14.4703 96.6065 14.7151 97.5753 14.7151C98.544 14.7151 99.419 14.4703 100.2 13.9807C100.987 13.4911 101.609 12.7698 102.067 11.8167C102.531 10.8635 102.763 9.69425 102.763 8.30884ZM106.355 2.02759V0.308837H118.355V2.02759H113.323V16.3088H111.386V2.02759H106.355ZM120.47 2.02759V0.308837H132.47V2.02759H127.439V16.3088H125.501V2.02759H120.47ZM148.294 8.30884C148.294 9.99634 147.989 11.4547 147.38 12.6838C146.771 13.913 145.935 14.8609 144.872 15.5276C143.81 16.1943 142.596 16.5276 141.232 16.5276C139.867 16.5276 138.653 16.1943 137.591 15.5276C136.528 14.8609 135.692 13.913 135.083 12.6838C134.474 11.4547 134.169 9.99634 134.169 8.30884C134.169 6.62134 134.474 5.163 135.083 3.93384C135.692 2.70467 136.528 1.75675 137.591 1.09009C138.653 0.423421 139.867 0.0900873 141.232 0.0900873C142.596 0.0900873 143.81 0.423421 144.872 1.09009C145.935 1.75675 146.771 2.70467 147.38 3.93384C147.989 5.163 148.294 6.62134 148.294 8.30884ZM146.419 8.30884C146.419 6.92342 146.187 5.75415 145.724 4.80103C145.265 3.8479 144.643 3.12655 143.857 2.63696C143.075 2.14738 142.2 1.90259 141.232 1.90259C140.263 1.90259 139.385 2.14738 138.599 2.63696C137.817 3.12655 137.195 3.8479 136.732 4.80103C136.273 5.75415 136.044 6.92342 136.044 8.30884C136.044 9.69425 136.273 10.8635 136.732 11.8167C137.195 12.7698 137.817 13.4911 138.599 13.9807C139.385 14.4703 140.263 14.7151 141.232 14.7151C142.2 14.7151 143.075 14.4703 143.857 13.9807C144.643 13.4911 145.265 12.7698 145.724 11.8167C146.187 10.8635 146.419 9.69425 146.419 8.30884Z" fill="#E17800"/>
</svg>
